<svg id="Layer_1" data-name="Layer 1" xmlns="http://www.w3.org/2000/svg" viewBox="0 0 638 638"><defs><style>.cls-1{fill:#ea4335;}.cls-2{fill:#fbbc04;}.cls-3{fill:#4285f4;}.cls-4{fill:#34a853;}</style></defs><title>Google Lens Logo Vector</title><path class="cls-1" d="M270.1,355.7a85.67,85.67,0,0,1,85.6-85.6h73.15V181H355.7C259.38,181,181,259.38,181,355.7V429h89.1Z" transform="translate(-181 -181)"/><path class="cls-2" d="M644.3,270.1a85.67,85.67,0,0,1,85.6,85.6V429H819V355.7C819,259.38,740.62,181,644.3,181H571.15v89.1Z" transform="translate(-181 -181)"/><path class="cls-3" d="M355.7,729.9a85.67,85.67,0,0,1-85.6-85.6v-73H181v73C181,740.62,259.38,819,355.7,819H429V729.9Z" transform="translate(-181 -181)"/><circle class="cls-3" cx="500" cy="500" r="123.74" transform="translate(-388.11 319) rotate(-45)"/><path class="cls-4" d="M783.49,713.33A70.53,70.53,0,1,1,713,642.8,70.55,70.55,0,0,1,783.49,713.33Z" transform="translate(-181 -181)"/></svg>