<svg id="Layer_1" data-name="Layer 1" xmlns="http://www.w3.org/2000/svg" viewBox="0 0 444.3 638"><defs><style>.cls-1{fill:#4285f4;}.cls-2{fill:#34a853;}.cls-3{fill:#fbbc05;}.cls-4{fill:#ea4335;}</style></defs><title>Google Mic Icon Logo Vector</title><g id="g17480"><path id="path17482" class="cls-1" d="M500.17,594.24a95.09,95.09,0,0,0,95.05-95.35l.3-222.54a95.35,95.35,0,1,0-190.7,0V498.89a95.38,95.38,0,0,0,95.35,95.35" transform="translate(-277.85 -181)"/></g><g id="g17484"><path id="path17486" class="cls-2" d="M468.38,719h0V819H532v-99c-10.35,1.47-20.82,1.39-31.59,1.39a223.73,223.73,0,0,1-32-2.47" transform="translate(-277.85 -181)"/></g><g id="g17488"><path id="path17490" class="cls-3" d="M387.3,612.29c-28.38-28.66-46-63.8-46-111.15H277.85c0,63.57,24.87,115.82,65.08,156.07l.46-.43c-.15-.15-.31-.27-.46-.42Z" transform="translate(-277.85 -181)"/></g><g id="g17492"><path id="path17494" class="cls-4" d="M658.69,501.12c0,79.48-70.63,157.81-158.42,157.81-43.91,0-83.65-18.39-112.42-47.2l-.54.54-44.38,44.11c.16.11.31.27.47.38a221.61,221.61,0,0,0,125,62.22,224.18,224.18,0,0,0,32,2.47c10.81,0,21.24.08,31.59-1.39,107.79-15.41,190.21-107.67,190.21-218.94Z" transform="translate(-277.85 -181)"/></g></svg>